<svg xmlns="http://www.w3.org/2000/svg" width="1600" height="1000" viewBox="0 0 1600 1000" role="img" aria-label="PUBLICATIONS evidence cover">
<defs>
 <linearGradient id="bg" x1="0" y1="0" x2="1" y2="1"><stop stop-color="#02070c"/><stop offset=".45" stop-color="#06233a"/><stop offset="1" stop-color="#04291f"/></linearGradient>
 <radialGradient id="g1" cx="20%" cy="25%" r="70%"><stop stop-color="#3287ff" stop-opacity=".68"/><stop offset="1" stop-color="#3287ff" stop-opacity="0"/></radialGradient>
 <radialGradient id="g2" cx="80%" cy="72%" r="70%"><stop stop-color="#38e7ad" stop-opacity=".60"/><stop offset="1" stop-color="#38e7ad" stop-opacity="0"/></radialGradient>
 <filter id="blur"><feGaussianBlur stdDeviation="36"/></filter>
 <filter id="soft"><feGaussianBlur stdDeviation="10"/></filter>
 <linearGradient id="glass" x1="0" y1="0" x2="1" y2="1"><stop stop-color="#ffffff" stop-opacity=".18"/><stop offset="1" stop-color="#ffffff" stop-opacity=".035"/></linearGradient>
</defs>
<rect width="1600" height="1000" fill="url(#bg)"/>
<rect width="1600" height="1000" fill="url(#g1)"/><rect width="1600" height="1000" fill="url(#g2)"/>
<g filter="url(#blur)" opacity=".7">
 <circle cx="297" cy="191" r="210" fill="#70d9ff" opacity=".34"/>
 <circle cx="1033" cy="303" r="260" fill="#38e7ad" opacity=".28"/>
 <path d="M0 640 C 360 600, 700 920, 1600 570 L1600 1000 L0 1000Z" fill="#0b8f67" opacity=".34"/>
</g>
<g opacity=".42" filter="url(#soft)">
 <path d="M1080 1000 C1100 740 1180 520 1310 300" stroke="#a4ffe0" stroke-width="15" fill="none"/>
 <path d="M1120 1000 C1160 700 1280 560 1510 460" stroke="#70d9ff" stroke-width="8" fill="none"/>
</g>
<rect x="105" y="80" width="850" height="840" rx="18" fill="url(#glass)" stroke="#ffffff" stroke-opacity=".20"/>
<rect x="105" y="80" width="850" height="840" rx="18" fill="#02070c" opacity=".30"/>
<text x="155" y="190" font-family="Arial, Helvetica, sans-serif" font-size="22" letter-spacing="7" fill="#a4ffe0">A. BABAEI / SELECTED EVIDENCE</text>
<text x="155" y="360" font-family="Georgia, serif" font-size="82" letter-spacing="2" fill="#f5fbff">PUBLICATIONS</text>
<text x="155" y="425" font-family="Arial, Helvetica, sans-serif" font-size="30" fill="#c4d4df">Peer-reviewed articles</text>
<line x1="155" y1="520" x2="690" y2="520" stroke="#70d9ff" stroke-opacity=".55"/>
<text x="155" y="610" font-family="Courier New, monospace" font-size="28" fill="#38e7ad">01 / PORTFOLIO ARCHIVE</text>
<text x="155" y="800" font-family="Arial, Helvetica, sans-serif" font-size="22" fill="#9eb1bf">Preview content · Copyright protected</text>
<text x="1450" y="110" text-anchor="end" font-family="Courier New, monospace" font-size="20" fill="#ffffff" opacity=".58">2026</text>
</svg>